# xmcd
#
# Track frame offsets:
#	150
#	31158
#	72130
#	144104
#	207381
#	240452
#	250216
#
# Disc length: 4088 seconds
#
# Revision: 1
# Processed by: cddbd v1.5.2PL0 Copyright (c) Steve Scherf et al.
# Submitted via: audiograbber 1.83.01
#
DISCID=570ff607
DTITLE=Grateful Dead - 95-03-23 Charlotte Coliseum, Charlotte NC
DYEAR=1900
DGENRE=
TTITLE0=Unbroken Chain
TTITLE1=Scarlet Begonias
TTITLE2=Fire On The Mountain
TTITLE3=Corrina
TTITLE4=Matilda
TTITLE5=Bruce and Drummers
TTITLE6=Drums
EXTD=
EXTT0=
EXTT1=
EXTT2=
EXTT3=
EXTT4=
EXTT5=
EXTT6=
PLAYORDER=
